<?xml version="1.0" encoding="UTF-8"?>
<svg xmlns="http://www.w3.org/2000/svg" xmlns:xlink="http://www.w3.org/1999/xlink" viewBox="0 0 100 100" width="100px" height="100px">
<g id="surface1276227">
<rect x="0" y="0" width="100" height="100" style="fill:rgb(23.529412%,80.784315%,82.352942%);fill-opacity:1;stroke:none;"/>
<path style=" stroke:none;fill-rule:nonzero;fill:rgb(0%,0%,0%);fill-opacity:1;" d="M 32.4375 34.8125 C 24.109375 34.8125 17.25 41.664062 17.25 50 C 17.25 58.335938 24.109375 65.1875 32.4375 65.1875 C 38.554688 65.1875 43.460938 61.535156 46.847656 58.144531 C 48.128906 56.867188 49.144531 55.644531 50 54.542969 C 50.855469 55.644531 51.871094 56.867188 53.152344 58.144531 C 56.539062 61.535156 61.445312 65.1875 67.5625 65.1875 C 75.890625 65.1875 82.75 58.335938 82.75 50 C 82.75 41.664062 75.898438 34.8125 67.5625 34.8125 C 61.445312 34.8125 56.539062 38.464844 53.152344 41.855469 C 51.871094 43.132812 50.855469 44.355469 50 45.457031 C 49.164062 44.367188 48.183594 43.160156 46.929688 41.894531 C 43.566406 38.496094 38.648438 34.8125 32.4375 34.8125 Z M 32.4375 40.050781 C 36.523438 40.050781 40.355469 42.699219 43.203125 45.578125 C 44.984375 47.375 46.105469 48.863281 46.847656 49.960938 C 46.089844 51.050781 44.960938 52.585938 43.121094 54.421875 C 40.230469 57.3125 36.367188 59.949219 32.4375 59.949219 C 26.964844 59.949219 22.492188 55.476562 22.492188 50 C 22.492188 44.523438 26.964844 40.050781 32.4375 40.050781 Z M 67.5625 40.050781 C 73.035156 40.050781 77.507812 44.523438 77.507812 50 C 77.507812 55.476562 73.035156 59.949219 67.5625 59.949219 C 63.632812 59.949219 59.769531 57.3125 56.878906 54.421875 C 55.074219 52.621094 53.957031 51.101562 53.191406 50 C 53.957031 48.898438 55.074219 47.378906 56.878906 45.578125 C 59.769531 42.6875 63.632812 40.050781 67.5625 40.050781 Z M 64.410156 43.449219 L 64.410156 47.378906 L 60.480469 47.378906 L 60.480469 52.621094 L 64.410156 52.621094 L 64.410156 56.550781 L 69.648438 56.550781 L 69.648438 52.621094 L 73.578125 52.621094 L 73.578125 47.378906 L 69.648438 47.378906 L 69.648438 43.449219 Z M 26.421875 47.378906 L 26.421875 52.621094 L 39.519531 52.621094 L 39.519531 47.378906 Z M 26.421875 47.378906 "/>
</g>
</svg>
