<?xml version="1.0" encoding="UTF-8"?>
<!DOCTYPE svg PUBLIC "-//W3C//DTD SVG 1.1//EN" "http://www.w3.org/Graphics/SVG/1.1/DTD/svg11.dtd">
<svg xmlns="http://www.w3.org/2000/svg" version="1.1" width="100px" height="100px" style="shape-rendering:geometricPrecision; text-rendering:geometricPrecision; image-rendering:optimizeQuality; fill-rule:evenodd; clip-rule:evenodd" xmlns:xlink="http://www.w3.org/1999/xlink">
<g><path style="opacity:1" fill="#3ccdd1" d="M -0.5,-0.5 C 32.8333,-0.5 66.1667,-0.5 99.5,-0.5C 99.5,3.5 99.5,7.5 99.5,11.5C 94.1925,1.23005 86.1925,-1.60329 75.5,3C 64.7883,15.3764 54.4549,28.043 44.5,41C 48.9715,46.0591 53.6381,50.8924 58.5,55.5C 71.7671,45.7358 84.6004,35.4025 97,24.5C 97.8447,22.3885 98.678,20.3885 99.5,18.5C 99.5,45.5 99.5,72.5 99.5,99.5C 66.1667,99.5 32.8333,99.5 -0.5,99.5C -0.5,96.1667 -0.5,92.8333 -0.5,89.5C 10.1475,99.7524 22.1475,101.252 35.5,94C 46.0553,86.6652 49.2219,76.8318 45,64.5C 36.3825,52.9758 25.5492,50.4758 12.5,57C 5.32509,63.197 2.49176,71.0303 4,80.5C 2.62879,82.0414 1.12879,83.3747 -0.5,84.5C -0.5,56.1667 -0.5,27.8333 -0.5,-0.5 Z"/></g>
<g><path style="opacity:1" fill="#010303" d="M 99.5,11.5 C 99.5,13.8333 99.5,16.1667 99.5,18.5C 98.678,20.3885 97.8447,22.3885 97,24.5C 84.6004,35.4025 71.7671,45.7358 58.5,55.5C 53.6381,50.8924 48.9715,46.0591 44.5,41C 54.4549,28.043 64.7883,15.3764 75.5,3C 86.1925,-1.60329 94.1925,1.23005 99.5,11.5 Z"/></g>
<g><path style="opacity:1" fill="#060f0f" d="M 41.5,44.5 C 46.4063,47.8983 50.9063,51.8983 55,56.5C 54.2729,60.5426 51.7729,62.3759 47.5,62C 44.6435,57.6433 40.9768,54.1433 36.5,51.5C 37.8037,48.8699 39.4704,46.5366 41.5,44.5 Z"/></g>
<g><path style="opacity:1" fill="#010202" d="M -0.5,89.5 C -0.5,87.8333 -0.5,86.1667 -0.5,84.5C 1.12879,83.3747 2.62879,82.0414 4,80.5C 2.49176,71.0303 5.32509,63.197 12.5,57C 25.5492,50.4758 36.3825,52.9758 45,64.5C 49.2219,76.8318 46.0553,86.6652 35.5,94C 22.1475,101.252 10.1475,99.7524 -0.5,89.5 Z"/></g>
</svg>
