<?xml version="1.0" encoding="UTF-8"?>
<!DOCTYPE svg PUBLIC "-//W3C//DTD SVG 1.1//EN" "http://www.w3.org/Graphics/SVG/1.1/DTD/svg11.dtd">
<svg xmlns="http://www.w3.org/2000/svg" version="1.1" width="100px" height="100px" style="shape-rendering:geometricPrecision; text-rendering:geometricPrecision; image-rendering:optimizeQuality; fill-rule:evenodd; clip-rule:evenodd" xmlns:xlink="http://www.w3.org/1999/xlink">
<g><path style="opacity:1" fill="#10e2ef" d="M -0.5,-0.5 C 32.8333,-0.5 66.1667,-0.5 99.5,-0.5C 99.5,32.8333 99.5,66.1667 99.5,99.5C 66.1667,99.5 32.8333,99.5 -0.5,99.5C -0.5,66.1667 -0.5,32.8333 -0.5,-0.5 Z"/></g>
<g><path style="opacity:1" fill="#071213" d="M 52.5,33.5 C 54.1033,33.3118 55.4366,33.8118 56.5,35C 53.0547,45.3388 49.2214,55.5055 45,65.5C 44.0754,64.9535 43.2421,64.2868 42.5,63.5C 46.4138,53.6773 49.7471,43.6773 52.5,33.5 Z"/></g>
<g><path style="opacity:1" fill="#0a1616" d="M 35.5,39.5 C 36.9953,39.4148 37.9953,40.0815 38.5,41.5C 36.0819,43.9092 34.0819,46.5759 32.5,49.5C 34.0819,52.4241 36.0819,55.0908 38.5,57.5C 38.1131,58.7199 37.2798,59.3865 36,59.5C 32.6277,56.6275 29.7944,53.2942 27.5,49.5C 29.8103,45.8591 32.477,42.5257 35.5,39.5 Z"/></g>
<g><path style="opacity:1" fill="#091516" d="M 61.5,39.5 C 65.7905,41.7904 69.1238,45.1237 71.5,49.5C 69.2119,53.4558 66.2119,56.7891 62.5,59.5C 61.5,59.1667 60.8333,58.5 60.5,57.5C 62.8847,55.1162 64.8847,52.4495 66.5,49.5C 65.2388,46.7363 63.4054,44.403 61,42.5C 60.5304,41.4232 60.6971,40.4232 61.5,39.5 Z"/></g>
</svg>
