<?xml version="1.0" encoding="UTF-8"?>
<!DOCTYPE svg PUBLIC "-//W3C//DTD SVG 1.1//EN" "http://www.w3.org/Graphics/SVG/1.1/DTD/svg11.dtd">
<svg xmlns="http://www.w3.org/2000/svg" version="1.1" width="100px" height="100px" style="shape-rendering:geometricPrecision; text-rendering:geometricPrecision; image-rendering:optimizeQuality; fill-rule:evenodd; clip-rule:evenodd" xmlns:xlink="http://www.w3.org/1999/xlink">
<g><path style="opacity:0.958" fill="#3cccd0" d="M -0.5,-0.5 C 32.8333,-0.5 66.1667,-0.5 99.5,-0.5C 99.5,32.8333 99.5,66.1667 99.5,99.5C 66.1667,99.5 32.8333,99.5 -0.5,99.5C -0.5,66.1667 -0.5,32.8333 -0.5,-0.5 Z"/></g>
<g><path style="opacity:1" fill="#010404" d="M 53.5,9.5 C 54.8221,9.33003 55.9887,9.66337 57,10.5C 57.6667,36.5 57.6667,62.5 57,88.5C 56.4387,89.0219 55.772,89.3552 55,89.5C 40.1565,86.7601 25.3232,83.9268 10.5,81C 9.34041,60.2397 9.17375,39.4063 10,18.5C 24.5241,15.263 39.0241,12.263 53.5,9.5 Z"/></g>
<g><path style="opacity:1" fill="#010303" d="M 60.5,19.5 C 69.4178,19.1828 78.2511,19.5161 87,20.5C 87.6667,39.8333 87.6667,59.1667 87,78.5C 78.2511,79.4839 69.4178,79.8172 60.5,79.5C 60.5,75.8333 60.5,72.1667 60.5,68.5C 61.5,68.5 62.5,68.5 63.5,68.5C 63.5,67.5 63.5,66.5 63.5,65.5C 62.5,65.5 61.5,65.5 60.5,65.5C 60.5,62.1667 60.5,58.8333 60.5,55.5C 61.5,55.5 62.5,55.5 63.5,55.5C 63.5,54.5 63.5,53.5 63.5,52.5C 62.5,52.5 61.5,52.5 60.5,52.5C 60.5,49.8333 60.5,47.1667 60.5,44.5C 61.5,44.5 62.5,44.5 63.5,44.5C 63.5,43.5 63.5,42.5 63.5,41.5C 62.5,41.5 61.5,41.5 60.5,41.5C 60.5,38.8333 60.5,36.1667 60.5,33.5C 61.5,33.5 62.5,33.5 63.5,33.5C 63.5,32.5 63.5,31.5 63.5,30.5C 62.5,30.5 61.5,30.5 60.5,30.5C 60.5,26.8333 60.5,23.1667 60.5,19.5 Z"/></g>
<g><path style="opacity:1" fill="#3bc8cc" d="M 66.5,30.5 C 70.8333,30.5 75.1667,30.5 79.5,30.5C 79.5,31.5 79.5,32.5 79.5,33.5C 75.1667,33.5 70.8333,33.5 66.5,33.5C 66.5,32.5 66.5,31.5 66.5,30.5 Z"/></g>
<g><path style="opacity:1" fill="#3ac5c9" d="M 20.5,34.5 C 23.2469,34.1866 25.9135,34.52 28.5,35.5C 29.9131,38.6612 31.5797,41.6612 33.5,44.5C 35.4203,41.6612 37.0869,38.6612 38.5,35.5C 41.1062,34.3483 43.7728,34.1816 46.5,35C 43.4359,39.6293 40.7693,44.4627 38.5,49.5C 40.6446,54.4549 43.3113,59.1216 46.5,63.5C 43.8333,64.8333 41.1667,64.8333 38.5,63.5C 36.4128,60.3272 34.5795,56.9939 33,53.5C 31.2941,57.0788 29.4608,60.5788 27.5,64C 24.8333,64.6667 22.1667,64.6667 19.5,64C 22.3747,59.0828 25.3747,54.2495 28.5,49.5C 25.5536,44.6049 22.8869,39.6049 20.5,34.5 Z"/></g>
<g><path style="opacity:1" fill="#3bc8cc" d="M 66.5,41.5 C 70.8333,41.5 75.1667,41.5 79.5,41.5C 79.5,42.5 79.5,43.5 79.5,44.5C 75.1667,44.5 70.8333,44.5 66.5,44.5C 66.5,43.5 66.5,42.5 66.5,41.5 Z"/></g>
<g><path style="opacity:1" fill="#39c4c8" d="M 67.5,52.5 C 71.5,52.5 75.5,52.5 79.5,52.5C 79.5,53.5 79.5,54.5 79.5,55.5C 75.5,55.5 71.5,55.5 67.5,55.5C 67.5,54.5 67.5,53.5 67.5,52.5 Z"/></g>
<g><path style="opacity:1" fill="#195657" d="M 67.5,52.5 C 67.5,53.5 67.5,54.5 67.5,55.5C 71.5,55.5 75.5,55.5 79.5,55.5C 75.3656,56.4849 71.0323,56.8182 66.5,56.5C 66.2322,54.901 66.5655,53.5676 67.5,52.5 Z"/></g>
<g><path style="opacity:1" fill="#3bc8cc" d="M 66.5,65.5 C 70.8333,65.5 75.1667,65.5 79.5,65.5C 79.5,66.5 79.5,67.5 79.5,68.5C 75.1667,68.5 70.8333,68.5 66.5,68.5C 66.5,67.5 66.5,66.5 66.5,65.5 Z"/></g>
</svg>
