<?xml version="1.0" encoding="UTF-8"?>
<!DOCTYPE svg PUBLIC "-//W3C//DTD SVG 1.1//EN" "http://www.w3.org/Graphics/SVG/1.1/DTD/svg11.dtd">
<svg xmlns="http://www.w3.org/2000/svg" version="1.1" width="100px" height="100px" style="shape-rendering:geometricPrecision; text-rendering:geometricPrecision; image-rendering:optimizeQuality; fill-rule:evenodd; clip-rule:evenodd" xmlns:xlink="http://www.w3.org/1999/xlink">
<g><path style="opacity:1" fill="#3cced1" d="M -0.5,-0.5 C 32.8333,-0.5 66.1667,-0.5 99.5,-0.5C 99.5,32.8333 99.5,66.1667 99.5,99.5C 66.1667,99.5 32.8333,99.5 -0.5,99.5C -0.5,66.1667 -0.5,32.8333 -0.5,-0.5 Z"/></g>
<g><path style="opacity:1" fill="#020505" d="M 47.5,22.5 C 48.8734,22.3433 50.2068,22.51 51.5,23C 60.4118,31.4082 68.7451,40.2415 76.5,49.5C 68.7451,58.7585 60.4118,67.5918 51.5,76C 50.1667,76.6667 48.8333,76.6667 47.5,76C 38.5882,67.5918 30.2549,58.7585 22.5,49.5C 27.7512,42.744 33.5845,36.4106 40,30.5C 47.544,37.4787 50.2106,46.1454 48,56.5C 44.1141,58.8053 43.6141,61.6387 46.5,65C 50.7402,66.5389 53.4068,65.2056 54.5,61C 53.7297,59.2252 52.563,57.7252 51,56.5C 50.1717,51.798 50.3384,47.1313 51.5,42.5C 55.2052,44.3689 57.0386,47.3689 57,51.5C 59.2825,55.0406 61.9491,55.3739 65,52.5C 66.736,46.5796 64.736,44.2463 59,45.5C 57.1667,43.6667 55.3333,41.8333 53.5,40C 54.7468,38.5421 54.7468,37.0421 53.5,35.5C 51.4527,33.9848 49.1193,33.1515 46.5,33C 44.3619,31.5784 43.1953,29.745 43,27.5C 44.7073,25.9625 46.2073,24.2959 47.5,22.5 Z"/></g>
</svg>
