<?xml version="1.0" encoding="UTF-8"?>
<!DOCTYPE svg PUBLIC "-//W3C//DTD SVG 1.1//EN" "http://www.w3.org/Graphics/SVG/1.1/DTD/svg11.dtd">
<svg xmlns="http://www.w3.org/2000/svg" version="1.1" width="100px" height="100px" style="shape-rendering:geometricPrecision; text-rendering:geometricPrecision; image-rendering:optimizeQuality; fill-rule:evenodd; clip-rule:evenodd" xmlns:xlink="http://www.w3.org/1999/xlink">
<g><path style="opacity:1" fill="#3ccdd1" d="M -0.5,-0.5 C 32.8333,-0.5 66.1667,-0.5 99.5,-0.5C 99.5,32.8333 99.5,66.1667 99.5,99.5C 66.1667,99.5 32.8333,99.5 -0.5,99.5C -0.5,66.1667 -0.5,32.8333 -0.5,-0.5 Z"/></g>
<g><path style="opacity:1" fill="#060808" d="M 91.5,37.5 C 88.5,38.1667 85.5,38.8333 82.5,39.5C 80.4727,39.3379 78.4727,39.5045 76.5,40C 74.4848,45.0186 71.3182,49.1852 67,52.5C 67.4882,59.3505 65.3216,65.1839 60.5,70C 53.1491,73.7841 45.4824,76.7841 37.5,79C 32.7582,81.1196 28.2582,83.6196 24,86.5C 23.5348,85.0692 22.7014,83.9025 21.5,83C 21.8333,82.6667 22.1667,82.3333 22.5,82C 21.1667,81.6667 19.8333,81.3333 18.5,81C 19.7468,79.5421 19.7468,78.0421 18.5,76.5C 23.8638,74.4337 29.1971,72.267 34.5,70C 36.3318,68.5114 37.1652,66.678 37,64.5C 35,66.5 33,68.5 31,70.5C 30.6667,69.8333 30.3333,69.1667 30,68.5C 27.9895,72.0016 26.6561,72.0016 26,68.5C 24.3163,70.3513 22.4829,72.018 20.5,73.5C 19.269,72.3493 19.269,71.1827 20.5,70C 18.2403,69.9558 16.2403,70.7892 14.5,72.5C 13.6527,70.939 13.9861,69.439 15.5,68C 14.451,67.5078 13.451,67.6744 12.5,68.5C 11.4104,67.6086 11.4104,66.6086 12.5,65.5C 11.1667,65.1667 9.83333,64.8333 8.5,64.5C 8.83333,63.8333 9.16667,63.1667 9.5,62.5C 8.44605,60.5985 7.44605,58.7652 6.5,57C 6.6448,56.228 6.97814,55.5613 7.5,55C 3.8729,53.7789 3.8729,52.1122 7.5,50C 2.60354,49.4572 2.60354,48.1239 7.5,46C 2.10312,46.214 1.43645,44.8806 5.5,42C 3.11441,41.7165 2.44774,40.7165 3.5,39C 2.69194,38.6924 2.02527,38.1924 1.5,37.5C 4.46888,36.332 4.80221,34.9987 2.5,33.5C 3.5,32.6667 4.5,31.8333 5.5,31C 4.37598,30.7508 3.37598,30.2508 2.5,29.5C 3.91223,28.1936 5.57889,27.3603 7.5,27C 6.67209,26.0853 5.67209,25.4186 4.5,25C 6.2852,23.8372 8.2852,23.1705 10.5,23C 9.5,22.1667 8.5,21.3333 7.5,20.5C 9.4233,19.6922 11.4233,19.1922 13.5,19C 8.62908,16.7448 8.62908,15.5782 13.5,15.5C 12.9478,13.6693 12.9478,12.0026 13.5,10.5C 19.4578,13.1455 25.1244,16.3122 30.5,20C 37.2542,26.4169 43.5875,33.0835 49.5,40C 51.6354,40.6347 53.6354,40.3014 55.5,39C 61.726,26.3489 69.5593,25.1822 79,35.5C 83.1246,36.492 87.2913,37.1586 91.5,37.5 Z"/></g>
<g><path style="opacity:1" fill="#e1e1e1" d="M 66.5,32.5 C 70.1612,32.3501 71.1612,33.8501 69.5,37C 65.7071,37.4866 64.7071,35.9866 66.5,32.5 Z"/></g>
<g><path style="opacity:1" fill="#1a585a" d="M 91.5,37.5 C 93.5643,37.687 95.5643,38.187 97.5,39C 92.5111,39.4993 87.5111,39.6659 82.5,39.5C 85.5,38.8333 88.5,38.1667 91.5,37.5 Z"/></g>
</svg>
