<?xml version="1.0" encoding="UTF-8"?>
<!DOCTYPE svg PUBLIC "-//W3C//DTD SVG 1.1//EN" "http://www.w3.org/Graphics/SVG/1.1/DTD/svg11.dtd">
<svg xmlns="http://www.w3.org/2000/svg" version="1.1" width="100px" height="100px" style="shape-rendering:geometricPrecision; text-rendering:geometricPrecision; image-rendering:optimizeQuality; fill-rule:evenodd; clip-rule:evenodd" xmlns:xlink="http://www.w3.org/1999/xlink">
<g><path style="opacity:1" fill="#3cced2" d="M -0.5,-0.5 C 32.8333,-0.5 66.1667,-0.5 99.5,-0.5C 99.5,32.8333 99.5,66.1667 99.5,99.5C 66.1667,99.5 32.8333,99.5 -0.5,99.5C -0.5,66.1667 -0.5,32.8333 -0.5,-0.5 Z"/></g>
<g><path style="opacity:1" fill="#030808" d="M 29.5,8.5 C 31.8333,8.5 34.1667,8.5 36.5,8.5C 36.5,11.1667 36.5,13.8333 36.5,16.5C 45.8393,16.3335 55.1726,16.5002 64.5,17C 66.286,17.7845 67.786,18.9512 69,20.5C 70.6403,39.0763 70.9736,57.743 70,76.5C 68.8333,79 67,80.8333 64.5,82C 54.8333,82.6667 45.1667,82.6667 35.5,82C 33.3762,80.8783 31.5429,79.3783 30,77.5C 28.8641,65.7341 28.3641,53.9008 28.5,42C 28.5105,30.7595 28.8438,19.5928 29.5,8.5 Z"/></g>
<g><path style="opacity:1" fill="#3bcbcf" d="M 37.5,26.5 C 45.5069,26.3336 53.5069,26.5003 61.5,27C 62.6389,32.4162 62.8056,37.9162 62,43.5C 61.5,44 61,44.5 60.5,45C 53.1667,45.6667 45.8333,45.6667 38.5,45C 38,44.5 37.5,44 37,43.5C 36.2153,37.7507 36.3819,32.084 37.5,26.5 Z"/></g>
<g><path style="opacity:1" fill="#36b9bd" d="M 37.5,50.5 C 41.0289,49.8894 42.8622,51.2227 43,54.5C 37.6479,57.877 35.8145,56.5437 37.5,50.5 Z"/></g>
<g><path style="opacity:1" fill="#39c2c6" d="M 47.5,50.5 C 52.1585,50.0146 53.4919,51.848 51.5,56C 46.7282,56.8104 45.3948,54.9771 47.5,50.5 Z"/></g>
<g><path style="opacity:1" fill="#36b7ba" d="M 57.5,50.5 C 62.1585,50.0146 63.4919,51.848 61.5,56C 56.2209,56.5848 54.8876,54.7514 57.5,50.5 Z"/></g>
<g><path style="opacity:1" fill="#33afb2" d="M 38.5,59.5 C 43.4928,59.997 44.4928,62.1637 41.5,66C 36.3823,65.8242 35.3823,63.6576 38.5,59.5 Z"/></g>
<g><path style="opacity:1" fill="#36b7bb" d="M 48.5,59.5 C 52.2635,60.385 53.2635,62.5516 51.5,66C 46.1483,66.1754 45.1483,64.0087 48.5,59.5 Z"/></g>
<g><path style="opacity:1" fill="#33afb3" d="M 57.5,59.5 C 62.4928,59.997 63.4928,62.1637 60.5,66C 55.3823,65.8242 54.3823,63.6576 57.5,59.5 Z"/></g>
<g><path style="opacity:1" fill="#36b7bb" d="M 38.5,69.5 C 42.485,69.6294 43.8183,71.4628 42.5,75C 36.5456,76.2271 35.2123,74.3938 38.5,69.5 Z"/></g>
<g><path style="opacity:1" fill="#39c3c7" d="M 47.5,69.5 C 52.1585,69.0146 53.4919,70.848 51.5,75C 46.7282,75.8104 45.3948,73.9771 47.5,69.5 Z"/></g>
<g><path style="opacity:1" fill="#38c1c4" d="M 57.5,69.5 C 61.485,69.6294 62.8183,71.4628 61.5,75C 59.8659,75.4935 58.1992,75.6602 56.5,75.5C 56.3253,73.3792 56.6586,71.3792 57.5,69.5 Z"/></g>
</svg>
