<?xml version="1.0" encoding="UTF-8"?>
<!DOCTYPE svg PUBLIC "-//W3C//DTD SVG 1.1//EN" "http://www.w3.org/Graphics/SVG/1.1/DTD/svg11.dtd">
<svg xmlns="http://www.w3.org/2000/svg" version="1.1" width="100px" height="100px" style="shape-rendering:geometricPrecision; text-rendering:geometricPrecision; image-rendering:optimizeQuality; fill-rule:evenodd; clip-rule:evenodd" xmlns:xlink="http://www.w3.org/1999/xlink">
<g><path style="opacity:1" fill="#39c4c7" d="M -0.5,-0.5 C 32.8333,-0.5 66.1667,-0.5 99.5,-0.5C 99.5,21.5 99.5,43.5 99.5,65.5C 98.8501,65.1961 98.1835,64.8627 97.5,64.5C 96.6669,43.8414 96.1669,23.1747 96,2.5C 89.5898,1.52234 83.0898,1.189 76.5,1.5C 76.5,3.5 76.5,5.5 76.5,7.5C 82.5721,8.71173 83.9055,11.8784 80.5,17C 76.5,17.6667 72.5,17.6667 68.5,17C 65.0945,11.8784 66.4279,8.71173 72.5,7.5C 72.5,5.5 72.5,3.5 72.5,1.5C 57.1667,1.5 41.8333,1.5 26.5,1.5C 26.5,3.5 26.5,5.5 26.5,7.5C 32.5721,8.71173 33.9055,11.8784 30.5,17C 26.5,17.6667 22.5,17.6667 18.5,17C 15.0945,11.8784 16.4279,8.71173 22.5,7.5C 22.5,5.5 22.5,3.5 22.5,1.5C 15.9102,1.189 9.41018,1.52234 3,2.5C 2.83307,23.1747 2.33307,43.8414 1.5,64.5C 0.816537,64.8627 0.14987,65.1961 -0.5,65.5C -0.5,43.5 -0.5,21.5 -0.5,-0.5 Z"/></g>
<g><path style="opacity:1" fill="#030707" d="M 99.5,65.5 C 99.5,66.1667 99.5,66.8333 99.5,67.5C 99.1667,67.5 98.8333,67.5 98.5,67.5C 87.7792,66.8581 77.4459,67.5247 67.5,69.5C 62.6042,71.4461 57.2709,72.1128 51.5,71.5C 50.4353,77.4365 52.2687,82.1032 57,85.5C 58.5,94.6667 54.6667,98.5 45.5,97C 39.8576,91.358 40.191,86.1914 46.5,81.5C 47.487,78.2317 47.8204,74.8984 47.5,71.5C 41.7291,72.1128 36.3958,71.4461 31.5,69.5C 21.5541,67.5247 11.2208,66.8581 0.5,67.5C 0.166667,67.5 -0.166667,67.5 -0.5,67.5C -0.5,66.8333 -0.5,66.1667 -0.5,65.5C 0.14987,65.1961 0.816537,64.8627 1.5,64.5C 2.33307,43.8414 2.83307,23.1747 3,2.5C 9.41018,1.52234 15.9102,1.189 22.5,1.5C 22.5,3.5 22.5,5.5 22.5,7.5C 16.4279,8.71173 15.0945,11.8784 18.5,17C 22.5,17.6667 26.5,17.6667 30.5,17C 33.9055,11.8784 32.5721,8.71173 26.5,7.5C 26.5,5.5 26.5,3.5 26.5,1.5C 41.8333,1.5 57.1667,1.5 72.5,1.5C 72.5,3.5 72.5,5.5 72.5,7.5C 66.4279,8.71173 65.0945,11.8784 68.5,17C 72.5,17.6667 76.5,17.6667 80.5,17C 83.9055,11.8784 82.5721,8.71173 76.5,7.5C 76.5,5.5 76.5,3.5 76.5,1.5C 83.0898,1.189 89.5898,1.52234 96,2.5C 96.1669,23.1747 96.6669,43.8414 97.5,64.5C 98.1835,64.8627 98.8501,65.1961 99.5,65.5 Z"/></g>
<g><path style="opacity:1" fill="#060d0d" d="M 19.5,11.5 C 22.8333,11.5 26.1667,11.5 29.5,11.5C 29.5,12.5 29.5,13.5 29.5,14.5C 26.1667,14.5 22.8333,14.5 19.5,14.5C 19.5,13.5 19.5,12.5 19.5,11.5 Z"/></g>
<g><path style="opacity:1" fill="#060d0d" d="M 69.5,11.5 C 72.8333,11.5 76.1667,11.5 79.5,11.5C 79.5,12.5 79.5,13.5 79.5,14.5C 76.1667,14.5 72.8333,14.5 69.5,14.5C 69.5,13.5 69.5,12.5 69.5,11.5 Z"/></g>
<g><path style="opacity:1" fill="#36b9bd" d="M 13.5,29.5 C 17.5,29.5 21.5,29.5 25.5,29.5C 25.5,30.5 25.5,31.5 25.5,32.5C 22.5,32.5 19.5,32.5 16.5,32.5C 16.5,34.1667 16.5,35.8333 16.5,37.5C 19.5184,37.3354 22.5184,37.502 25.5,38C 26.8333,39 26.8333,40 25.5,41C 22.5184,41.498 19.5184,41.6646 16.5,41.5C 16.5,43.1667 16.5,44.8333 16.5,46.5C 19.8984,46.1796 23.2317,46.513 26.5,47.5C 26.2907,48.086 25.9574,48.586 25.5,49C 21.2452,49.7961 17.0785,49.6295 13,48.5C 12.2098,42.0853 12.3765,35.752 13.5,29.5 Z"/></g>
<g><path style="opacity:1" fill="#37babe" d="M 75.5,29.5 C 78.8499,29.335 82.1832,29.5017 85.5,30C 85.9574,30.414 86.2907,30.914 86.5,31.5C 83.2959,32.2036 80.1292,32.8702 77,33.5C 76.501,37.8206 76.3343,42.1539 76.5,46.5C 79.8984,46.1796 83.2317,46.513 86.5,47.5C 86.2907,48.086 85.9574,48.586 85.5,49C 82.1667,49.6667 78.8333,49.6667 75.5,49C 74.6667,48.1667 73.8333,47.3333 73,46.5C 72.3333,41.8333 72.3333,37.1667 73,32.5C 74.045,31.6266 74.8783,30.6266 75.5,29.5 Z"/></g>
<g><path style="opacity:1" fill="#3ac5c9" d="M 51.5,29.5 C 54.7033,31.0246 57.37,33.3579 59.5,36.5C 61.63,33.3579 64.2967,31.0246 67.5,29.5C 67.5,36.1667 67.5,42.8333 67.5,49.5C 66.5,49.5 65.5,49.5 64.5,49.5C 64.6657,45.1539 64.499,40.8206 64,36.5C 62.9586,38.5852 61.4586,40.2519 59.5,41.5C 57.5414,40.2519 56.0414,38.5852 55,36.5C 54.501,40.8206 54.3343,45.1539 54.5,49.5C 53.5,49.5 52.5,49.5 51.5,49.5C 51.5,42.8333 51.5,36.1667 51.5,29.5 Z"/></g>
<g><path style="opacity:1" fill="#3bcbcf" d="M 31.5,34.5 C 35.5138,34.3345 39.5138,34.5012 43.5,35C 43.9574,35.414 44.2907,35.914 44.5,36.5C 40.2172,37.4922 35.8839,37.8256 31.5,37.5C 31.5,36.5 31.5,35.5 31.5,34.5 Z"/></g>
<g><path style="opacity:1" fill="#3bc9cd" d="M 31.5,41.5 C 35.8333,41.5 40.1667,41.5 44.5,41.5C 44.5,42.5 44.5,43.5 44.5,44.5C 40.1667,44.5 35.8333,44.5 31.5,44.5C 31.5,43.5 31.5,42.5 31.5,41.5 Z"/></g>
<g><path style="opacity:1" fill="#3dcfd2" d="M 34.5,64.5 C 44.5,64.5 54.5,64.5 64.5,64.5C 64.5,65.5 64.5,66.5 64.5,67.5C 54.5,67.5 44.5,67.5 34.5,67.5C 34.5,66.5 34.5,65.5 34.5,64.5 Z"/></g>
<g><path style="opacity:1" fill="#3cced2" d="M -0.5,67.5 C -0.166667,67.5 0.166667,67.5 0.5,67.5C 10.7347,68.1886 21.068,68.8553 31.5,69.5C 36.3958,71.4461 41.7291,72.1128 47.5,71.5C 47.8204,74.8984 47.487,78.2317 46.5,81.5C 40.191,86.1914 39.8576,91.358 45.5,97C 54.6667,98.5 58.5,94.6667 57,85.5C 52.2687,82.1032 50.4353,77.4365 51.5,71.5C 57.2709,72.1128 62.6042,71.4461 67.5,69.5C 77.932,68.8553 88.2653,68.1886 98.5,67.5C 98.8333,67.5 99.1667,67.5 99.5,67.5C 99.5,78.1667 99.5,88.8333 99.5,99.5C 66.1667,99.5 32.8333,99.5 -0.5,99.5C -0.5,88.8333 -0.5,78.1667 -0.5,67.5 Z"/></g>
<g><path style="opacity:1" fill="#28898c" d="M 98.5,67.5 C 88.2653,68.1886 77.932,68.8553 67.5,69.5C 77.4459,67.5247 87.7792,66.8581 98.5,67.5 Z"/></g>
<g><path style="opacity:1" fill="#28898c" d="M 0.5,67.5 C 11.2208,66.8581 21.5541,67.5247 31.5,69.5C 21.068,68.8553 10.7347,68.1886 0.5,67.5 Z"/></g>
<g><path style="opacity:1" fill="#3ac6ca" d="M 47.5,84.5 C 54.8029,85.2666 56.1363,88.4332 51.5,94C 46.6667,94.5 44.5,92.3333 45,87.5C 45.6979,86.3094 46.5313,85.3094 47.5,84.5 Z"/></g>
</svg>
