<?xml version="1.0" encoding="UTF-8"?>
<!DOCTYPE svg PUBLIC "-//W3C//DTD SVG 1.1//EN" "http://www.w3.org/Graphics/SVG/1.1/DTD/svg11.dtd">
<svg xmlns="http://www.w3.org/2000/svg" version="1.1" width="100px" height="100px" style="shape-rendering:geometricPrecision; text-rendering:geometricPrecision; image-rendering:optimizeQuality; fill-rule:evenodd; clip-rule:evenodd" xmlns:xlink="http://www.w3.org/1999/xlink">
<g><path style="opacity:1" fill="#3cced2" d="M -0.5,-0.5 C 32.8333,-0.5 66.1667,-0.5 99.5,-0.5C 99.5,32.8333 99.5,66.1667 99.5,99.5C 66.1667,99.5 32.8333,99.5 -0.5,99.5C -0.5,66.1667 -0.5,32.8333 -0.5,-0.5 Z"/></g>
<g><path style="opacity:1" fill="#020505" d="M 44.5,26.5 C 47.6852,26.0196 50.5185,26.6863 53,28.5C 53.6667,42.5 53.6667,56.5 53,70.5C 51.7009,71.9797 50.0342,72.6464 48,72.5C 40.7688,71.5889 33.7688,69.9223 27,67.5C 26.3333,55.5 26.3333,43.5 27,31.5C 32.8249,29.5084 38.6582,27.8417 44.5,26.5 Z"/></g>
<g><path style="opacity:1" fill="#2b9295" d="M 57.5,30.5 C 57.7388,35.5696 58.4054,40.5696 59.5,45.5C 56.8693,40.6992 56.2026,35.6992 57.5,30.5 Z"/></g>
<g><path style="opacity:1" fill="#030707" d="M 57.5,30.5 C 62.43,30.1975 67.2633,30.5308 72,31.5C 72.6667,43.1667 72.6667,54.8333 72,66.5C 71.5,67 71,67.5 70.5,68C 66.1794,68.499 61.8461,68.6657 57.5,68.5C 57.5,66.1667 57.5,63.8333 57.5,61.5C 60.8499,61.665 64.1832,61.4983 67.5,61C 68.3366,59.9887 68.67,58.8221 68.5,57.5C 64.8333,57.5 61.1667,57.5 57.5,57.5C 57.5,55.5 57.5,53.5 57.5,51.5C 61.6935,51.6383 64.0268,49.6383 64.5,45.5C 62.8333,45.5 61.1667,45.5 59.5,45.5C 58.4054,40.5696 57.7388,35.5696 57.5,30.5 Z"/></g>
<g><path style="opacity:1" fill="#3ac7cb" d="M 63.5,36.5 C 66.8333,36.5 68.5,38.1667 68.5,41.5C 66.8333,41.5 65.1667,41.5 63.5,41.5C 63.5,39.8333 63.5,38.1667 63.5,36.5 Z"/></g>
<g><path style="opacity:1" fill="#1f6a6c" d="M 43.5,40.5 C 40.5,40.5 37.5,40.5 34.5,40.5C 34.5,46.5 34.5,52.5 34.5,58.5C 35.8333,58.5 37.1667,58.5 38.5,58.5C 37.0813,59.4511 35.4147,59.7845 33.5,59.5C 33.5,52.8333 33.5,46.1667 33.5,39.5C 37.0419,39.1872 40.3752,39.5206 43.5,40.5 Z"/></g>
<g><path style="opacity:1" fill="#3ac5c9" d="M 43.5,40.5 C 47.7478,41.5882 49.2478,44.2548 48,48.5C 45.5923,51.6201 42.4257,52.9534 38.5,52.5C 38.5,54.5 38.5,56.5 38.5,58.5C 37.1667,58.5 35.8333,58.5 34.5,58.5C 34.5,52.5 34.5,46.5 34.5,40.5C 37.5,40.5 40.5,40.5 43.5,40.5 Z"/></g>
<g><path style="opacity:1" fill="#050d0d" d="M 38.5,43.5 C 43.5867,43.2845 44.5867,45.1178 41.5,49C 40.552,49.4828 39.552,49.6495 38.5,49.5C 38.5,47.5 38.5,45.5 38.5,43.5 Z"/></g>
</svg>
