<?xml version="1.0" encoding="UTF-8"?>
<!DOCTYPE svg PUBLIC "-//W3C//DTD SVG 1.1//EN" "http://www.w3.org/Graphics/SVG/1.1/DTD/svg11.dtd">
<svg xmlns="http://www.w3.org/2000/svg" version="1.1" width="100px" height="100px" style="shape-rendering:geometricPrecision; text-rendering:geometricPrecision; image-rendering:optimizeQuality; fill-rule:evenodd; clip-rule:evenodd" xmlns:xlink="http://www.w3.org/1999/xlink">
<g><path style="opacity:1" fill="#3cced2" d="M -0.5,-0.5 C 32.8333,-0.5 66.1667,-0.5 99.5,-0.5C 99.5,32.8333 99.5,66.1667 99.5,99.5C 66.1667,99.5 32.8333,99.5 -0.5,99.5C -0.5,66.1667 -0.5,32.8333 -0.5,-0.5 Z"/></g>
<g><path style="opacity:1" fill="#030808" d="M 59.5,29.5 C 59.7934,36.2554 59.4601,42.9221 58.5,49.5C 52.4908,49.3338 46.4908,49.5005 40.5,50C 37.7691,52.8966 36.7691,56.3966 37.5,60.5C 34.5,60.5 31.5,60.5 28.5,60.5C 20.5579,53.0441 20.5579,45.5441 28.5,38C 35.1667,37.6667 41.8333,37.3333 48.5,37C 44.5138,36.5012 40.5138,36.3345 36.5,36.5C 36.7428,24.454 42.7428,20.2873 54.5,24C 57.079,25.0757 58.7457,26.909 59.5,29.5 Z"/></g>
<g><path style="opacity:1" fill="#36b9bc" d="M 42.5,28.5 C 43.5,28.5 44.5,28.5 45.5,28.5C 45.8841,30.6648 45.2174,32.3315 43.5,33.5C 41.2957,32.218 40.9624,30.5514 42.5,28.5 Z"/></g>
<g><path style="opacity:1" fill="#227375" d="M 59.5,29.5 C 60.4731,31.9479 60.8064,34.6146 60.5,37.5C 63.7131,37.19 66.7131,37.5233 69.5,38.5C 66.8333,38.5 64.1667,38.5 61.5,38.5C 61.6646,41.5184 61.498,44.5184 61,47.5C 60.6232,48.9423 59.7899,49.9423 58.5,50.5C 58.5,50.1667 58.5,49.8333 58.5,49.5C 59.4601,42.9221 59.7934,36.2554 59.5,29.5 Z"/></g>
<g><path style="opacity:1" fill="#030808" d="M 69.5,38.5 C 75.3829,41.2728 77.5496,45.9395 76,52.5C 75.3322,56.4987 73.1655,59.332 69.5,61C 63.1667,61.3333 56.8333,61.6667 50.5,62C 54.4862,62.4988 58.4862,62.6655 62.5,62.5C 62.6628,73.2758 57.3295,77.7758 46.5,76C 42.9916,74.9883 40.6582,72.8217 39.5,69.5C 39.3339,63.8236 39.5006,58.1569 40,52.5C 40.5,52 41,51.5 41.5,51C 47.1569,50.5006 52.8236,50.3339 58.5,50.5C 59.7899,49.9423 60.6232,48.9423 61,47.5C 61.498,44.5184 61.6646,41.5184 61.5,38.5C 64.1667,38.5 66.8333,38.5 69.5,38.5 Z"/></g>
<g><path style="opacity:1" fill="#28878a" d="M 58.5,49.5 C 58.5,49.8333 58.5,50.1667 58.5,50.5C 52.8236,50.3339 47.1569,50.5006 41.5,51C 41,51.5 40.5,52 40,52.5C 39.5006,58.1569 39.3339,63.8236 39.5,69.5C 38.5269,67.0521 38.1936,64.3854 38.5,61.5C 34.9581,61.8128 31.6248,61.4794 28.5,60.5C 31.5,60.5 34.5,60.5 37.5,60.5C 36.7691,56.3966 37.7691,52.8966 40.5,50C 46.4908,49.5005 52.4908,49.3338 58.5,49.5 Z"/></g>
<g><path style="opacity:1" fill="#36b8bb" d="M 54.5,65.5 C 57.3892,65.999 58.0558,67.499 56.5,70C 55.552,70.4828 54.552,70.6495 53.5,70.5C 53.366,68.7085 53.6993,67.0418 54.5,65.5 Z"/></g>
</svg>
