<?xml version="1.0" encoding="UTF-8"?>
<!DOCTYPE svg PUBLIC "-//W3C//DTD SVG 1.1//EN" "http://www.w3.org/Graphics/SVG/1.1/DTD/svg11.dtd">
<svg xmlns="http://www.w3.org/2000/svg" version="1.1" width="100px" height="100px" style="shape-rendering:geometricPrecision; text-rendering:geometricPrecision; image-rendering:optimizeQuality; fill-rule:evenodd; clip-rule:evenodd" xmlns:xlink="http://www.w3.org/1999/xlink">
<g><path style="opacity:0.773" fill="#000000" d="M 39.5,3.5 C 67.9223,0.452161 86.4223,12.4522 95,39.5C 98.5545,65.9011 88.0545,84.0678 63.5,94C 51.0664,96.8801 39.0664,95.7134 27.5,90.5C 19.6855,93.1208 11.6855,94.7875 3.5,95.5C 4.53515,87.72 6.20182,80.0533 8.5,72.5C -1.86541,49.086 2.46793,28.9194 21.5,12C 27.2079,8.31011 33.2079,5.47678 39.5,3.5 Z M 40.5,8.5 C 65.6258,5.97201 82.1258,16.6387 90,40.5C 92.5742,70.5898 78.9075,87.5898 49,91.5C 41.7409,90.5262 34.7409,88.5262 28,85.5C 22.3309,86.834 16.6642,88.1673 11,89.5C 10.5,89.1667 10,88.8333 9.5,88.5C 11.0114,82.7879 12.678,77.1212 14.5,71.5C 4.01047,51.0293 7.01047,32.8627 23.5,17C 28.8939,13.4886 34.5605,10.6552 40.5,8.5 Z M 33.5,29.5 C 36.0511,32.0978 37.7178,35.2645 38.5,39C 35.2343,42.4341 34.7343,46.2674 37,50.5C 41.3875,56.2317 46.8875,60.3984 53.5,63C 57.5348,63.1788 60.5348,61.3455 62.5,57.5C 65.7814,58.6248 68.448,60.4582 70.5,63C 68.9102,67.0819 65.9102,68.9152 61.5,68.5C 55.2787,67.8146 49.612,65.648 44.5,62C 38.922,57.0929 34.0887,51.5929 30,45.5C 27.1219,39.0616 28.2886,33.7283 33.5,29.5 Z"/></g>
<g><path style="opacity:0.767" fill="#000000" d="M 29.5,25.5 C 32.7766,25.2161 35.9433,25.5495 39,26.5C 40.9308,30.7925 42.7641,35.1259 44.5,39.5C 43.5428,41.9176 42.2095,44.0843 40.5,46C 43.7858,51.2878 48.2858,55.1211 54,57.5C 56.4296,55.3936 59.0963,53.7269 62,52.5C 66.8462,53.4236 71.1795,55.4236 75,58.5C 76.3664,68.6385 71.8664,73.6385 61.5,73.5C 44.9543,71.1306 32.7877,62.4639 25,47.5C 23.5076,42.5893 23.1743,37.5893 24,32.5C 25.3823,29.6945 27.2156,27.3612 29.5,25.5 Z M 33.5,29.5 C 28.2886,33.7283 27.1219,39.0616 30,45.5C 34.0887,51.5929 38.922,57.0929 44.5,62C 49.612,65.648 55.2787,67.8146 61.5,68.5C 65.9102,68.9152 68.9102,67.0819 70.5,63C 68.448,60.4582 65.7814,58.6248 62.5,57.5C 60.5348,61.3455 57.5348,63.1788 53.5,63C 46.8875,60.3984 41.3875,56.2317 37,50.5C 34.7343,46.2674 35.2343,42.4341 38.5,39C 37.7178,35.2645 36.0511,32.0978 33.5,29.5 Z"/></g>
</svg>
